<svg width="249" height="40" viewBox="0 0 249 40" fill="none" xmlns="http://www.w3.org/2000/svg">
<path d="M0.312 0.911999H14.032C17.8773 0.911999 20.808 1.84533 22.824 3.712C24.8773 5.57866 25.904 8.11733 25.904 11.328C25.904 13.568 25.344 15.36 24.224 16.704C23.1413 18.0107 21.5733 18.9627 19.52 19.56V19.896C21.9467 20.4933 23.8133 21.5387 25.12 23.032C26.464 24.5253 27.136 26.5973 27.136 29.248C27.136 32.5333 26.0907 35.1467 24 37.088C21.9467 39.0293 19.0533 40 15.32 40H0.312V0.911999ZM12.744 34.12C14.76 34.12 16.2347 33.784 17.168 33.112C18.1013 32.44 18.568 31.208 18.568 29.416V27.792C18.568 26 18.1013 24.768 17.168 24.096C16.2347 23.424 14.76 23.088 12.744 23.088H8.488V34.12H12.744ZM11.68 17.488C13.6587 17.488 15.096 17.1707 15.992 16.536C16.888 15.864 17.336 14.6693 17.336 12.952V11.272C17.336 9.55467 16.888 8.37867 15.992 7.744C15.096 7.10933 13.6587 6.792 11.68 6.792H8.488V17.488H11.68ZM53.9381 40L51.4741 30.592H40.7781L38.3701 40H29.8581L40.4421 0.911999H52.3141L62.8981 40H53.9381ZM46.3781 9.032H45.9301L42.1221 23.816H50.1861L46.3781 9.032ZM74.0203 40L63.6603 0.911999H73.0123L77.6043 20.792L79.9003 32.048H80.3483L82.7003 20.792L87.3483 0.911999H96.2523L85.8923 40H74.0203ZM121.094 40L118.63 30.592H107.934L105.526 40H97.0144L107.598 0.911999H119.47L130.054 40H121.094ZM113.534 9.032H113.086L109.278 23.816H117.342L113.534 9.032Z" fill="white"/>
<path d="M134.345 30.592V10.768C134.345 4.496 137.481 1.36 143.753 1.36H159.937L163.689 4.272V8.64H144.089C142.969 8.64 142.409 9.2 142.409 10.32V31.04C142.409 32.16 142.969 32.72 144.089 32.72H156.745V23.76H149.353V16.48H164.809V40H143.753C137.481 40 134.345 36.864 134.345 30.592ZM169.274 2.872L170.226 1.36H177.114L185.514 17.768L193.914 1.36H200.802L201.754 2.872L189.546 26.336V40H181.482V26.336L169.274 2.872ZM207.365 40V1.36H216.997L227.861 24.544L238.725 1.36H248.357V40H240.293V15.584L231.221 34.96H224.501L215.429 15.584V40H207.365Z" fill="#FFCD29"/>
</svg>
